<svg viewBox="0 0 300 400" xmlns="http://www.w3.org/2000/svg" role="img" aria-label="Bakht book cover">
  <defs>
    <linearGradient id="bgBakht" x1="0" y1="0" x2="1" y2="1">
      <stop offset="0%" stop-color="#3a0f0c"/>
      <stop offset="55%" stop-color="#5c211c"/>
      <stop offset="100%" stop-color="#7b2d26"/>
    </linearGradient>
    <radialGradient id="glowBakht" cx="50%" cy="32%" r="55%">
      <stop offset="0%" stop-color="#c9963d" stop-opacity="0.35"/>
      <stop offset="100%" stop-color="#c9963d" stop-opacity="0"/>
    </radialGradient>
  </defs>
  <rect width="300" height="400" fill="url(#bgBakht)"/>
  <rect width="300" height="400" fill="url(#glowBakht)"/>
  <rect x="14" y="14" width="272" height="372" fill="none" stroke="#c9963d" stroke-width="1.5"/>
  <rect x="19" y="19" width="262" height="362" fill="none" stroke="#c9963d" stroke-width="0.6" opacity="0.7"/>
  <!-- corner flourishes -->
  <g stroke="#c9963d" stroke-width="1.2" fill="none" opacity="0.85">
    <path d="M14 34 h20 M14 14 v20"/>
    <path d="M286 34 h-20 M286 14 v20"/>
    <path d="M14 366 h20 M14 386 v-20"/>
    <path d="M286 366 h-20 M286 386 v-20"/>
  </g>
  <!-- compass / fate motif -->
  <g transform="translate(150,140)" stroke="#c9963d" fill="none">
    <circle r="42" stroke-width="1.3" opacity="0.9"/>
    <circle r="30" stroke-width="0.8" opacity="0.6"/>
    <g fill="#e9c988">
      <path d="M0,-42 L6,-10 L0,-2 L-6,-10 Z"/>
      <path d="M0,42 L6,10 L0,2 L-6,10 Z"/>
      <path d="M-42,0 L-10,-6 L-2,0 L-10,6 Z"/>
      <path d="M42,0 L10,-6 L2,0 L10,6 Z"/>
    </g>
    <circle r="4.5" fill="#f3e3c3"/>
  </g>
  <line x1="90" y1="216" x2="210" y2="216" stroke="#c9963d" stroke-width="1"/>
  <text x="150" y="252" text-anchor="middle" font-family="'Playfair Display', Georgia, serif" font-size="34" font-weight="700" fill="#f3e3c3" letter-spacing="2">Bakht</text>
  <line x1="105" y1="270" x2="195" y2="270" stroke="#c9963d" stroke-width="0.8" opacity="0.8"/>
  <text x="150" y="296" text-anchor="middle" font-family="Georgia, serif" font-style="italic" font-size="14" fill="#e6ddcb">Nemrah Ahmed</text>
  <text x="150" y="352" text-anchor="middle" font-family="'Poppins', sans-serif" font-size="10.5" letter-spacing="3" fill="#c9963d">URDU FICTION</text>
</svg>
